# This file uses centimeters as units for non-parametric coordinates.

mtllib Banco.mtl
g default
v -3.522557 -0.055736 -10.078773
v -3.461204 2.683186 -10.185038
v -3.583909 2.683186 -10.185038
v -3.645262 2.683186 -10.078773
v -3.583909 2.683186 -9.972507
v -3.461204 2.683186 -9.972507
v -3.399852 2.683186 -10.078773
v -3.461204 0.193706 -10.185038
v -3.583909 0.193706 -10.185038
v -3.645262 0.193706 -10.078773
v -3.583909 0.193706 -9.972507
v -3.461204 0.193706 -9.972507
v -3.399852 0.193706 -10.078773
v -3.166152 -0.053473 -10.696083
v -3.878962 -0.053473 -10.696083
v -3.878962 0.067367 -10.696083
v -3.166152 0.067367 -10.696083
v -4.235367 -0.053473 -10.078773
v -4.235367 0.067367 -10.078773
v -3.878962 -0.053473 -9.461461
v -3.878962 0.067367 -9.461461
v -3.166152 -0.053473 -9.461461
v -3.166152 0.067367 -9.461461
v -2.809747 -0.053473 -10.078773
v -2.809747 0.067367 -10.078773
v -2.633099 2.597862 -10.544398
v -2.951107 2.597862 -10.903355
v -3.399504 2.597862 -11.073410
v -3.875569 2.597862 -11.015605
v -4.270239 2.597862 -10.743183
v -4.493103 2.597862 -10.318554
v -4.493103 2.597862 -9.838993
v -4.270240 2.597862 -9.414362
v -3.875569 2.597862 -9.141941
v -3.399504 2.597862 -9.084136
v -2.951108 2.597862 -9.254190
v -2.633100 2.597862 -9.613147
v -2.518333 2.597862 -10.078773
v -3.520275 2.597862 -10.078773
v -3.520275 2.864302 -10.078773
v -2.633099 2.768313 -10.544398
v -2.720808 2.864302 -10.498365
v -2.951107 2.768313 -10.903355
v -3.007376 2.864302 -10.821835
v -3.399504 2.768313 -11.073410
v -3.411444 2.864302 -10.975078
v -3.875569 2.768313 -11.015605
v -3.840444 2.864302 -10.922988
v -4.270239 2.768313 -10.743183
v -4.196096 2.864302 -10.677498
v -4.493103 2.768313 -10.318554
v -4.396927 2.864302 -10.294848
v -4.493103 2.768313 -9.838993
v -4.396927 2.864302 -9.862698
v -4.270240 2.768313 -9.414362
v -4.196097 2.864302 -9.480047
v -3.875569 2.768313 -9.141941
v -3.840444 2.864302 -9.234558
v -3.399504 2.768313 -9.084136
v -3.411444 2.864302 -9.182468
v -2.951108 2.768313 -9.254190
v -3.007377 2.864302 -9.335711
v -2.633100 2.768313 -9.613147
v -2.720808 2.864302 -9.659180
v -2.518333 2.768313 -10.078773
v -2.617387 2.864302 -10.078773
vt 0.525759 0.179040
vt 0.599902 0.104582
vt 0.599902 0.088050
vt 0.599902 0.071518
vt 0.599902 0.054986
vt 0.599902 0.038454
vt 0.599902 0.021922
vt 0.599902 0.005389
vt 0.393037 0.270173
vt 0.264492 0.104582
vt 0.302291 0.268411
vt 0.309477 0.256615
vt 0.386417 0.258050
vt 0.258439 0.188947
vt 0.272247 0.189268
vt 0.564611 0.249327
vt 0.484316 0.247830
vt 0.305328 0.111236
vt 0.311956 0.123353
vt 0.606059 0.180534
vt 0.396073 0.112979
vt 0.567198 0.110246
vt 0.388896 0.124781
vt 0.486904 0.108756
vt 0.439945 0.192452
vt 0.445463 0.177546
vt 0.426133 0.192131
vt 0.362384 0.191039
vt 0.342302 0.201954
vt 0.591753 0.311637
vt 0.558858 0.282280
vt 0.516187 0.364180
vt 0.607337 0.353031
vt 0.602040 0.396979
vt 0.577074 0.433413
vt 0.538161 0.453987
vt 0.494213 0.453987
vt 0.455299 0.433413
vt 0.430333 0.396979
vt 0.425036 0.353031
vt 0.440621 0.311637
vt 0.473516 0.282280
vt 0.516187 0.271686
vt 0.181093 0.039179
vt 0.174563 0.051156
vt 0.133404 0.040607
vt 0.133620 0.026967
vt 0.217454 0.072055
vt 0.206106 0.079626
vt 0.234371 0.118063
vt 0.220805 0.119493
vt 0.227970 0.166663
vt 0.215293 0.161624
vt 0.199716 0.206721
vt 0.190833 0.196368
vt 0.156083 0.229060
vt 0.153029 0.215764
vt 0.107066 0.228563
vt 0.110541 0.215371
vt 0.063895 0.205344
vt 0.073102 0.195278
vt 0.036460 0.164722
vt 0.049290 0.160087
vt 0.031044 0.116003
vt 0.044559 0.117862
vt 0.048890 0.070348
vt 0.059993 0.078274
vt 0.085909 0.038216
vt 0.092056 0.050394
vt 0.188901 0.024406
vt 0.231233 0.062603
vt 0.250964 0.116097
vt 0.243576 0.172633
vt 0.210760 0.219260
vt 0.160034 0.245295
vt 0.103020 0.244775
vt 0.052779 0.217819
vt 0.020819 0.170602
vt 0.014463 0.113941
vt 0.035166 0.060816
vt 0.078186 0.023398
vt 0.133668 0.010258
vt 0.132583 0.129377
vt 0.264492 0.021922
vt 0.264492 0.005389
vt 0.355493 0.202293
vt 0.264492 0.038454
vt 0.264492 0.054986
vt 0.264492 0.071518
vt 0.264492 0.088050
vt 0.335998 0.190360
vt 0.342890 0.179108
vt 0.356081 0.179448
vn 0.499999 0.000000 -0.866026
vn -0.499999 0.000000 -0.866026
vn -0.499999 0.000000 -0.866026
vn 0.499999 0.000000 -0.866026
vn -1.000000 0.000000 0.000000
vn -1.000000 0.000000 0.000000
vn -0.500002 0.000000 0.866024
vn -0.500002 0.000000 0.866024
vn 0.500002 0.000000 0.866024
vn 0.500002 0.000000 0.866024
vn 1.000000 0.000000 0.000000
vn 1.000000 0.000000 0.000000
vn 0.499999 0.000000 -0.866026
vn -0.499999 0.000000 -0.866026
vn -0.499999 0.000000 -0.866026
vn 0.499999 0.000000 -0.866026
vn -1.000000 0.000000 0.000000
vn -1.000000 0.000000 0.000000
vn -0.500000 0.000000 0.866025
vn -0.500000 0.000000 0.866025
vn 0.500000 0.000000 0.866025
vn 0.500000 0.000000 0.866025
vn 1.000000 0.000000 0.000000
vn 1.000000 0.000000 0.000000
vn 0.000000 -1.000000 -0.000000
vn -0.001587 -0.999995 -0.002749
vn 0.001587 -0.999995 -0.002749
vn -0.104676 0.977840 -0.181304
vn 0.104676 0.977840 -0.181304
vn 0.104676 0.977840 -0.181304
vn -0.104676 0.977840 -0.181304
vn -0.003175 -0.999995 0.000000
vn -0.209352 0.977840 -0.000000
vn -0.209352 0.977840 -0.000000
vn -0.001587 -0.999995 0.002749
vn -0.104676 0.977840 0.181304
vn -0.104676 0.977840 0.181304
vn 0.001587 -0.999995 0.002749
vn 0.104676 0.977840 0.181304
vn 0.104676 0.977840 0.181304
vn 0.003175 -0.999995 -0.000000
vn 0.209352 0.977840 -0.000000
vn 0.209352 0.977840 0.000000
vn 0.000000 -1.000000 0.000000
vn 0.000000 -1.000000 0.000000
vn 0.000000 -1.000000 -0.000000
vn 0.000000 -1.000000 -0.000000
vn 0.000000 -1.000000 -0.000000
vn 0.000000 -1.000000 -0.000000
vn 0.000000 -1.000000 0.000000
vn 0.000000 -1.000000 0.000000
vn 0.000000 -1.000000 0.000000
vn 0.000000 -1.000000 -0.000000
vn 0.000000 -1.000000 -0.000000
vn 0.000000 -1.000000 0.000000
vn 0.000000 -1.000000 0.000000
vn 0.000000 -1.000000 0.000000
vn 0.616198 0.718129 -0.323405
vn 0.616198 0.718129 -0.323405
vn 0.695910 0.718129 0.000000
vn 0.695910 0.718129 0.000000
vn 0.395322 0.718129 -0.572723
vn 0.395322 0.718129 -0.572723
vn 0.083883 0.718129 -0.690836
vn 0.083883 0.718129 -0.690836
vn -0.246774 0.718128 -0.650688
vn -0.246774 0.718128 -0.650688
vn -0.520896 0.718128 -0.461475
vn -0.520897 0.718128 -0.461474
vn -0.675688 0.718129 -0.166542
vn -0.675688 0.718129 -0.166542
vn -0.675688 0.718129 0.166541
vn -0.675688 0.718129 0.166542
vn -0.520896 0.718129 0.461474
vn -0.520896 0.718129 0.461474
vn -0.246772 0.718129 0.650688
vn -0.246772 0.718129 0.650688
vn 0.083882 0.718130 0.690835
vn 0.083882 0.718130 0.690835
vn 0.395322 0.718130 0.572722
vn 0.395322 0.718130 0.572722
vn 0.616198 0.718129 0.323406
vn 0.616198 0.718129 0.323406
vn 0.885456 0.000000 -0.464723
vn 0.568065 0.000000 -0.822984
vn 0.568065 0.000000 -0.822984
vn 0.885456 0.000000 -0.464723
vn 0.120538 0.000000 -0.992709
vn 0.120538 0.000000 -0.992709
vn -0.354606 0.000000 -0.935016
vn -0.354606 0.000000 -0.935016
vn -0.748511 0.000000 -0.663123
vn -0.748511 0.000000 -0.663123
vn -0.970942 0.000000 -0.239317
vn -0.970942 0.000000 -0.239317
vn -0.970942 0.000000 0.239315
vn -0.970942 0.000000 0.239315
vn -0.748511 0.000000 0.663122
vn -0.748511 0.000000 0.663122
vn -0.354605 0.000000 0.935016
vn -0.354605 0.000000 0.935016
vn 0.120536 0.000000 0.992709
vn 0.120536 0.000000 0.992709
vn 0.568065 0.000000 0.822984
vn 0.568065 0.000000 0.822984
vn 0.885456 0.000000 0.464723
vn 0.885456 0.000000 0.464723
vn 1.000000 0.000000 0.000000
vn 1.000000 0.000000 0.000000
vn 0.000000 1.000000 0.000001
vn 0.000000 1.000000 0.000000
vn 0.000000 1.000000 0.000000
vn 0.000000 1.000000 -0.000000
vn 0.000000 1.000000 0.000000
vn 0.000000 1.000000 0.000000
vn 0.000000 1.000000 0.000000
vn 0.000000 1.000000 0.000000
vn 0.000000 1.000000 0.000000
vn 0.000000 1.000000 0.000000
vn 0.000000 1.000000 0.000000
vn 0.000000 1.000000 0.000000
vn 0.000000 1.000000 0.000000
vn 0.000000 1.000000 0.000001
s 1
g Banco
usemtl lambert5SG
f 8/10/1 9/90/2 3/3/3 2/2/4
f 9/90/2 10/89/5 4/4/6 3/3/3
f 10/89/5 11/88/7 5/5/8 4/4/6
f 11/88/7 12/87/9 6/6/10 5/5/8
f 12/87/9 13/84/11 7/7/12 6/6/10
f 13/84/11 8/85/1 2/8/4 7/7/12
s 2
f 14/9/13 15/11/14 16/12/15 17/13/16
f 15/11/14 18/14/17 19/15/18 16/12/15
f 18/14/17 20/18/19 21/19/20 19/15/18
f 20/18/19 22/21/21 23/23/22 21/19/20
f 22/21/21 24/25/23 25/27/24 23/23/22
f 24/25/23 14/9/13 17/13/16 25/27/24
s 3
f 1/1/25 15/16/26 14/17/27
s 4
f 9/29/28 8/86/29 17/13/30 16/12/31
s 3
f 1/1/25 18/20/32 15/16/26
s 4
f 10/91/33 9/29/28 16/12/31 19/15/34
s 3
f 1/1/25 20/22/35 18/20/32
s 4
f 11/92/36 10/91/33 19/15/34 21/19/37
s 3
f 1/1/25 22/24/38 20/22/35
s 4
f 12/93/39 11/92/36 21/19/37 23/23/40
s 3
f 1/1/25 24/26/41 22/24/38
s 4
f 13/28/42 12/93/39 23/23/40 25/27/43
s 3
f 1/1/25 14/17/27 24/26/41
s 4
f 8/86/29 13/28/42 25/27/43 17/13/30
s 5
f 27/30/44 26/31/45 39/32/46
f 28/33/47 27/30/44 39/32/46
f 29/34/48 28/33/47 39/32/46
f 30/35/49 29/34/48 39/32/46
f 31/36/50 30/35/49 39/32/46
f 32/37/51 31/36/50 39/32/46
f 33/38/52 32/37/51 39/32/46
f 34/39/53 33/38/52 39/32/46
f 35/40/54 34/39/53 39/32/46
f 36/41/55 35/40/54 39/32/46
f 37/42/56 36/41/55 39/32/46
f 38/43/57 37/42/56 39/32/46
f 26/31/45 38/43/57 39/32/46
s 6
f 41/44/58 42/45/59 66/46/60 65/47/61
f 42/45/59 41/44/58 43/48/62 44/49/63
f 44/49/63 43/48/62 45/50/64 46/51/65
f 46/51/65 45/50/64 47/52/66 48/53/67
f 48/53/67 47/52/66 49/54/68 50/55/69
f 50/55/69 49/54/68 51/56/70 52/57/71
f 52/57/71 51/56/70 53/58/72 54/59/73
f 54/59/73 53/58/72 55/60/74 56/61/75
f 56/61/75 55/60/74 57/62/76 58/63/77
f 58/63/77 57/62/76 59/64/78 60/65/79
f 60/65/79 59/64/78 61/66/80 62/67/81
f 62/67/81 61/66/80 63/68/82 64/69/83
f 64/69/83 63/68/82 65/47/61 66/46/60
s 7
f 26/70/84 27/71/85 43/48/86 41/44/87
f 27/71/85 28/72/88 45/50/89 43/48/86
f 28/72/88 29/73/90 47/52/91 45/50/89
f 29/73/90 30/74/92 49/54/93 47/52/91
f 30/74/92 31/75/94 51/56/95 49/54/93
f 31/75/94 32/76/96 53/58/97 51/56/95
f 32/76/96 33/77/98 55/60/99 53/58/97
f 33/77/98 34/78/100 57/62/101 55/60/99
f 34/78/100 35/79/102 59/64/103 57/62/101
f 35/79/102 36/80/104 61/66/105 59/64/103
f 36/80/104 37/81/106 63/68/107 61/66/105
f 37/81/106 38/82/108 65/47/109 63/68/107
f 38/82/108 26/70/84 41/44/87 65/47/109
s 8
f 42/45/110 44/49/111 40/83/112
f 44/49/111 46/51/113 40/83/112
f 46/51/113 48/53/114 40/83/112
f 48/53/114 50/55/115 40/83/112
f 50/55/115 52/57/116 40/83/112
f 52/57/116 54/59/117 40/83/112
f 54/59/117 56/61/118 40/83/112
f 56/61/118 58/63/119 40/83/112
f 58/63/119 60/65/120 40/83/112
f 60/65/120 62/67/121 40/83/112
f 62/67/121 64/69/122 40/83/112
f 64/69/122 66/46/123 40/83/112
f 66/46/123 42/45/110 40/83/112
