# This file uses centimeters as units for non-parametric coordinates.

mtllib Chao.mtl
g default
v -41.778099 -2.247249 14.815305
v 14.811570 -2.247249 14.811569
v -41.772339 -0.055217 14.819039
v 14.817334 -0.055215 14.815305
v -41.766579 -0.055218 -19.111271
v 14.823096 -0.055217 -19.115005
v -41.772339 -2.247249 -19.115005
v 14.817334 -2.247249 -19.118740
vt 0.000462 0.999780
vt 0.000462 0.000000
vt 0.065477 0.000110
vt 0.065477 0.999890
vt 0.000462 0.000110
vt 0.000462 0.999890
vt 0.065477 1.000000
vt 0.065477 0.000220
vt 0.000000 0.000000
vt 0.999898 0.000110
vt 1.000000 1.000000
vt 0.000102 0.999890
vt 0.000000 -0.001668
vt 0.999796 -0.001668
vt 0.999898 0.106523
vt 0.000102 0.106523
vt 0.000204 0.106523
vt 1.000000 0.106523
vt 0.999898 -0.001668
vt 0.000102 -0.001668
vn 0.000092 -0.004322 0.999991
vn 0.000092 -0.004322 0.999991
vn 0.000092 -0.004322 0.999991
vn 0.000092 -0.004322 0.999991
vn -0.003034 0.999985 -0.004681
vn -0.003034 0.999985 -0.004681
vn -0.003034 0.999985 -0.004681
vn -0.003034 0.999985 -0.004681
vn -0.000092 0.004321 -0.999991
vn -0.000092 0.004321 -0.999991
vn -0.000092 0.004321 -0.999991
vn -0.000092 0.004321 -0.999991
vn 0.999978 -0.006669 0.000219
vn 0.999978 -0.006669 0.000219
vn 0.999978 -0.006669 0.000219
vn 0.999978 -0.006669 0.000219
vn -0.999978 0.006669 -0.000218
vn -0.999978 0.006669 -0.000218
vn -0.999978 0.006669 -0.000218
vn -0.999978 0.006669 -0.000218
s off
g Chao group3
usemtl Mapa:lambert1SG
f 1/13/1 2/14/2 4/15/3 3/16/4
f 3/9/5 4/10/6 6/11/7 5/12/8
f 5/17/9 6/18/10 8/19/11 7/20/12
f 2/1/13 8/2/14 6/3/15 4/4/16
f 7/5/17 1/6/18 3/7/19 5/8/20
