# This file uses centimeters as units for non-parametric coordinates.

mtllib Grama.mtl
g default
v -66.716438 -3.822947 23.320282
v 35.138454 -3.822945 23.320282
v -66.716438 -1.129479 23.320282
v 35.138454 -1.129479 23.320282
v -66.716438 -1.129479 -73.802254
v 35.138454 -1.129479 -73.802254
v -66.716438 -3.822948 -73.802254
v 35.138454 -3.822947 -73.802261
vt 0.000000 0.458080
vt 1.000000 0.458080
vt 1.000000 0.541920
vt 0.000000 0.541920
vt 1.000000 0.458080
vt 0.000000 0.458080
vt 0.000000 0.541920
vt 1.000000 0.541920
vt 0.000000 0.000000
vt 0.999879 0.000121
vt 1.000000 1.000000
vt 0.000121 0.999879
vt 0.000121 0.999879
vt 1.000000 1.000000
vt 0.999879 0.000121
vt 0.000000 0.000000
vt -0.000000 0.456816
vt 1.000000 0.456816
vt 1.000000 0.543184
vt -0.000000 0.543184
vt -0.000000 0.543184
vt 1.000000 0.543184
vt 1.000000 0.456816
vt -0.000000 0.456816
vn 0.000000 0.000000 1.000000
vn 0.000000 0.000000 1.000000
vn 0.000000 0.000000 1.000000
vn 0.000000 0.000000 1.000000
vn -0.001413 0.999997 -0.002180
vn -0.001413 0.999997 -0.002180
vn -0.001413 0.999997 -0.002180
vn -0.001413 0.999997 -0.002180
vn -0.000092 0.009279 -0.999957
vn -0.000092 0.009279 -0.999957
vn -0.000092 0.009279 -0.999957
vn -0.000092 0.009279 -0.999957
vn 0.001413 -0.999997 0.002180
vn 0.001413 -0.999997 0.002180
vn 0.001413 -0.999997 0.002180
vn 0.001413 -0.999997 0.002180
vn 0.999898 -0.014317 0.000219
vn 0.999898 -0.014317 0.000219
vn 0.999898 -0.014317 0.000219
vn 0.999898 -0.014317 0.000219
vn -0.999898 0.014305 -0.000218
vn -0.999898 0.014305 -0.000218
vn -0.999898 0.014305 -0.000218
vn -0.999898 0.014305 -0.000218
s off
g Grama group3
usemtl lambert4SG
f 1/17/1 2/18/2 4/19/3 3/20/4
f 3/9/5 4/10/6 6/11/7 5/12/8
f 5/21/9 6/22/10 8/23/11 7/24/12
f 7/13/13 8/14/14 2/15/15 1/16/16
f 2/1/17 8/2/18 6/3/19 4/4/20
f 7/5/21 1/6/22 3/7/23 5/8/24
