# This file uses centimeters as units for non-parametric coordinates.

mtllib Paredes.mtl
g default
v 14.782715 0.075813 14.797624
v 14.782715 11.571484 14.797624
v -41.600266 11.571484 14.797624
v -41.600266 11.571484 13.797624
v -41.600266 0.075813 14.797624
v -41.600266 0.075813 13.797624
v 13.733140 11.571484 13.797624
v 13.733145 0.075813 13.797624
v 13.733145 0.075813 -19.127253
v 14.782715 0.075813 -19.127253
v 13.733140 11.571484 -19.127253
v 14.782715 11.571484 -19.127253
vt 0.998315 0.305482
vt 0.975936 0.029353
vt -0.000082 0.304399
vt 0.029294 0.304399
vt 0.029294 0.003123
vt -0.000082 0.003123
vt 0.002815 0.029353
vt 0.998315 0.001328
vt 0.029294 0.003097
vt -0.000082 0.003097
vt -0.000082 0.304399
vt 0.029294 0.304399
vt 0.001658 0.001328
vt 0.001658 0.305482
vt 0.998315 0.305482
vt 0.998315 0.001328
vt 0.001658 0.001328
vt 0.001658 0.305482
vt 0.001658 0.305482
vt 0.001658 0.001328
vt 0.998315 0.001328
vt 0.998315 0.305482
vt 0.002815 0.001778
vt 0.993471 0.001778
vt 0.998316 0.001328
vt 0.998315 0.305482
vt 0.001658 0.305482
vt 0.001658 0.001328
vt 0.000000 0.000000
vt 0.970523 0.000000
vt 1.000000 0.030938
vt 0.000000 0.030938
vn 0.000000 1.000000 -0.000000
vn 0.000000 1.000000 0.000000
vn 0.000000 1.000000 0.000000
vn 0.000000 1.000000 0.000000
vn -1.000000 0.000000 0.000000
vn -1.000000 0.000000 0.000000
vn -1.000000 0.000000 0.000000
vn -1.000000 0.000000 0.000000
vn 0.000000 0.000000 -1.000000
vn 0.000000 0.000000 -1.000000
vn 0.000000 0.000000 -1.000000
vn 0.000000 0.000000 -1.000000
vn 0.000000 0.000000 1.000000
vn 0.000000 0.000000 1.000000
vn 0.000000 0.000000 1.000000
vn 0.000000 0.000000 1.000000
vn 0.000000 0.000000 -1.000000
vn 0.000000 0.000000 -1.000000
vn 0.000000 0.000000 -1.000000
vn 0.000000 0.000000 -1.000000
vn -1.000000 -0.000000 0.000000
vn -1.000000 -0.000000 0.000000
vn -1.000000 -0.000000 0.000000
vn -1.000000 -0.000000 0.000000
vn 1.000000 0.000000 0.000000
vn 1.000000 0.000000 0.000000
vn 1.000000 0.000000 0.000000
vn 1.000000 0.000000 0.000000
vn 0.000000 1.000000 0.000000
vn 0.000000 1.000000 0.000000
vn 0.000000 1.000000 0.000000
vn 0.000000 1.000000 0.000000
s off
g Paredes Mapa:Parede group3
usemtl lambert6SG
f 7/2/1 4/7/2 3/23/3 2/24/4
f 3/3/5 4/4/6 6/5/7 5/6/8
f 7/1/9 8/8/10 6/17/11 4/18/12
f 3/19/13 5/20/14 1/21/15 2/22/16
f 10/9/17 9/10/18 11/11/19 12/12/20
f 8/13/21 7/14/22 11/15/23 9/16/24
f 2/25/25 1/26/26 10/27/27 12/28/28
f 11/29/29 7/30/30 2/31/31 12/32/32
